<svg aria-hidden="true" style="position: absolute; width: 0; height: 0; overflow: hidden;" version="1.1" xmlns="http://www.w3.org/2000/svg" xmlns:xlink="http://www.w3.org/1999/xlink">
<defs>
<symbol id="icon-button_svg" viewBox="0 0 26 32">
<path stroke-linejoin="round" stroke-linecap="round" stroke-miterlimit="4" stroke-width="6.4" d="M5.172 3.2l14.169 12.8-14.169 12.8"></path>
<symbol id="icon-Burger" viewBox="0 0 46 32">
<path fill="none" stroke="#d41443" style="stroke: var(--color1, #d41443)" stroke-linejoin="miter" stroke-linecap="butt" stroke-miterlimit="4" stroke-width="2.2857" d="M0 2.286h45.714"></path>
<path fill="none" stroke="#d41443" style="stroke: var(--color1, #d41443)" stroke-linejoin="miter" stroke-linecap="butt" stroke-miterlimit="4" stroke-width="2.2857" d="M0 16h45.714"></path>
<path fill="none" stroke="#d41443" style="stroke: var(--color1, #d41443)" stroke-linejoin="miter" stroke-linecap="butt" stroke-miterlimit="4" stroke-width="2.2857" d="M0 29.714h45.714"></path>
</symbol>
<symbol id="icon-close" viewBox="0 0 32 32">
<path fill="none" stroke="#fff" style="stroke: var(--color2, #fff)" stroke-linejoin="miter" stroke-linecap="butt" stroke-miterlimit="4" stroke-width="2" d="M2.518 2l26.963 28"></path>
<path fill="none" stroke="#fff" style="stroke: var(--color2, #fff)" stroke-linejoin="miter" stroke-linecap="butt" stroke-miterlimit="4" stroke-width="2" d="M2 29.481l28-26.963"></path>
</symbol>

<symbol id="icon-github" viewBox="0 0 32 32">
<circle cx="16" cy="16" r="16"/>
<path d="M16 6.58813C10.8305 6.58813 6.58823 10.8304 6.58823 15.9999C6.58823 20.4112 9.68365 24.4184 13.7941 25.4117V22.2979C13.3868 22.387 13.012 22.3896 12.5974 22.2674C12.0412 22.1033 11.5892 21.7328 11.2538 21.1678C11.0399 20.807 10.6609 20.4158 10.2656 20.4446L10.1686 19.3459C11.0236 19.2727 11.7632 19.8668 12.2022 20.6044C12.3972 20.9324 12.6217 21.1247 12.9098 21.2097C13.1882 21.2917 13.4872 21.2524 13.8356 21.1293C13.9231 20.4318 14.2426 20.1707 14.484 19.803V19.8025C12.0326 19.4368 11.0556 18.1363 10.6678 17.1097C10.154 15.7467 10.4297 14.0439 11.3383 12.9678C11.356 12.9468 11.3879 12.892 11.3755 12.8536C10.9589 11.5952 11.4666 10.5541 11.4853 10.4437C11.9661 10.5859 12.0442 10.3007 13.5738 11.23L13.8382 11.3888C13.9488 11.4547 13.914 11.4171 14.0246 11.4088C14.6633 11.2353 15.3365 11.1395 15.9999 11.1309C16.6682 11.1395 17.3372 11.2353 18.0022 11.4158L18.0878 11.4244C18.0804 11.4233 18.1111 11.419 18.1627 11.3882C20.0734 10.2309 20.0048 10.6091 20.5172 10.4425C20.5357 10.5531 21.0366 11.6111 20.6245 12.8536C20.5689 13.0248 22.281 14.5926 21.332 17.1093C20.9443 18.1363 19.9674 19.4368 17.516 19.8025V19.803C17.8302 20.282 18.2077 20.5367 18.2057 21.5248V25.4117C22.3163 24.4184 25.4116 20.4112 25.4116 15.9999C25.4118 10.8304 21.1695 6.58813 16 6.58813V6.58813Z" fill="white"/>
</symbol>

<symbol id="icon-telegram" viewBox="0 0 32 32">
<g clip-path="url(#clip0_57354_400)">
<circle cx="16.2353" cy="16" r="16"/>
<path d="M13.1025 18.3753L12.7849 22.5446C13.2393 22.5446 13.4361 22.3624 13.6721 22.1437L15.8026 20.2434L20.2171 23.2607C21.0267 23.6818 21.5971 23.46 21.8155 22.5655L24.7132 9.89318L24.714 9.89243C24.9708 8.77542 24.2812 8.33863 23.4924 8.61265L6.45996 14.6987C5.29753 15.1198 5.31513 15.7246 6.26235 15.9986L10.6169 17.2627L20.7315 11.3559C21.2075 11.0617 21.6403 11.2245 21.2843 11.5187L13.1025 18.3753Z" fill="white"/>
</g>
<defs>
<clipPath id="clip0_57354_400">
<rect width="32" height="32" fill="white" transform="translate(0.235264)"/>
</clipPath>
</symbol>

<symbol id="icon-facebook" viewBox="0 0 32 32">
<g clip-path="url(#clip0_57354_393)">
<path d="M16.4706 32C25.3071 32 32.4706 24.8366 32.4706 16C32.4706 7.16344 25.3071 0 16.4706 0C7.63403 0 0.470589 7.16344 0.470589 16C0.470589 24.8366 7.63403 32 16.4706 32Z"/>
<path d="M20.9162 15.9814H18.3061V25.5999H14.3514V15.9814H12.4706V12.6011H14.3514V10.4136C14.3514 8.84938 15.0901 6.3999 18.3413 6.3999L21.2706 6.41223V9.69341H19.1452C18.7965 9.69341 18.3063 9.86861 18.3063 10.6148V12.6042H21.2617L20.9162 15.9814Z" fill="white"/>
</g>
<defs>
<clipPath id="clip0_57354_393">
<rect width="32" height="32" fill="white" transform="translate(0.470589)"/>
</clipPath>
</symbol>

<symbol id="icon-arrow-right" viewBox="0 0 32 32">
<path d="M19.414 27.414l10-10c0.781-0.781 0.781-2.047 0-2.828l-10-10c-0.781-0.781-2.047-0.781-2.828 0s-0.781 2.047 0 2.828l6.586 6.586h-19.172c-1.105 0-2 0.895-2 2s0.895 2 2 2h19.172l-6.586 6.586c-0.39 0.39-0.586 0.902-0.586 1.414s0.195 1.024 0.586 1.414c0.781 0.781 2.047 0.781 2.828 0z"></path>
</symbol>
</defs>
</svg>
